<svg width="800" height="800" viewBox="0 0 800 800" fill="none" xmlns="http://www.w3.org/2000/svg">
<g clip-path="url(#clip0_620_27855)">
<path d="M400 800C620.914 800 800 620.914 800 400C800 179.086 620.914 0 400 0C179.086 0 0 179.086 0 400C0 620.914 179.086 800 400 800Z" fill="white"/>
<path d="M400 200C289.539 200 200 289.539 200 400C200 510.461 289.539 600 400 600C510.461 600 600 510.461 600 400C600 289.539 510.461 200 400 200ZM494.938 449.047C426.563 517.438 304.391 495.609 304.391 495.609C304.391 495.609 282.344 373.672 350.961 305.055C388.984 267.031 451.977 268.609 491.797 308.18C531.617 347.75 532.969 410.992 494.922 449.016L494.938 449.047ZM422.945 317.188L403.375 357.461L363.102 377.031L403.375 396.602L422.945 436.875L442.516 396.602L482.812 377.055L442.539 357.484L422.945 317.188Z" fill="black"/>
</g>
<defs>
<clipPath id="clip0_620_27855">
<rect width="800" height="800" fill="white"/>
</clipPath>
</defs>
</svg>
