<svg width="64px" height="64px" viewBox="0 0 245 189" fill="none" xmlns="http://www.w3.org/2000/svg">
<g clip-path="url(#clip0_446_764)">
<path d="M67.0166 119.909C71.9755 124.273 76.6248 128.976 80.9307 133.986C84.6977 138.75 86.5243 142.115 89.7429 148.1C91.6445 151.384 92.9678 152.224 95.3934 151.773C98.037 151.282 98.9043 149.274 99.3178 146.341C100.125 139.974 100.782 135.106 102.359 130.33C105.478 121.095 109.904 112.581 114.282 104.374C115.452 102.065 123.25 88.4265 126.019 78.2945C126.019 78.2945 129.648 67.0554 126.998 52.7937C124.518 39.4531 117.348 31.2137 117.348 31.2137L102.436 38.3328L97.5711 65.2046L95.857 69.1039L95.502 69.8184L95.0211 70.7198L94.153 72.1781L92.8728 74.0429L85.6711 82.5344L66.7312 98.7282L67.0166 119.909Z" fill="#34A853"/>
<path d="M39.2933 92.6374C46.6698 103.503 58.5879 112.044 67.0399 119.913L95.024 70.7362C95.024 70.7362 91.1974 78.2875 82.0266 79.992C71.812 81.8905 62.0436 75.2673 60.1319 64.9819C58.821 57.9287 62.1638 52.2943 62.1638 52.2943L39.0178 63.349L39.2933 92.6374Z" fill="#FBBC04"/>
<path d="M84.6435 12.6555C97.2756 14.2831 108.976 20.4542 117.357 31.2035L95.0303 70.7096C95.0303 70.7096 98.3569 64.988 97.0541 57.9785C95.0978 47.4532 84.7736 41.2378 75.1995 43.0173C66.1459 44.7 62.1728 52.2673 62.1728 52.2673L58.1712 30.737L84.6435 12.6555Z" fill="#4285F4"/>
<path d="M35.8187 37.353C41.3543 27.5132 52.25 16.415 69.5178 13.2056C77.8955 11.6485 84.6161 12.6747 84.6161 12.6747L62.1492 52.2914L41.72 56.0884L35.8187 37.353Z" fill="#1A73E8"/>
<path d="M39.2933 92.6374C39.2933 92.6374 32.7955 84.1939 30.2836 70.679C27.9094 57.9053 30.7997 45.8166 35.8186 37.353L62.166 52.2911L39.2933 92.6374Z" fill="#EA4335"/>
</g>
<g clip-path="url(#clip1_446_764)">
<path d="M182 189.001C216.794 189.001 245 160.795 245 126.001C245 91.2069 216.794 63.0009 182 63.0009C147.206 63.0009 119 91.2069 119 126.001C119 160.795 147.206 189.001 182 189.001Z" fill="black"/>
<path d="M182 94.5009C164.602 94.5009 150.5 108.603 150.5 126.001C150.5 143.398 164.602 157.501 182 157.501C199.397 157.501 213.5 143.398 213.5 126.001C213.5 108.603 199.397 94.5009 182 94.5009ZM196.952 133.726C186.183 144.497 166.941 141.059 166.941 141.059C166.941 141.059 163.469 121.854 174.276 111.047C180.265 105.058 190.186 105.307 196.458 111.539C202.729 117.771 202.942 127.732 196.95 133.721L196.952 133.726ZM185.614 112.958L182.531 119.301L176.188 122.383L182.531 125.466L185.614 131.809L188.696 125.466L195.043 122.387L188.7 119.305L185.614 112.958Z" fill="white"/>
</g>
<defs>
<clipPath id="clip0_446_764">
<rect width="141" height="141" fill="white" transform="translate(0.304443 26.0696) rotate(-10.5289)"/>
</clipPath>
<clipPath id="clip1_446_764">
<rect width="126" height="126" fill="white" transform="translate(119 63.0009)"/>
</clipPath>
</defs>
</svg>
