<svg width="800" height="800" viewBox="0 0 800 800" fill="none" xmlns="http://www.w3.org/2000/svg">
<g clip-path="url(#clip0_620_27861)">
<path d="M397.866 0.533206C364.418 0.628812 331.109 4.86094 298.7 13.1332C142.7 51.8999 18.8996 193.233 3.03291 353.467C-16.6338 505.1 59.9662 663 191.166 741.3C319.866 821.9 494.266 818.633 620.3 733.867C733.533 660.333 804.033 526.267 799.833 391.033C797.9 257.167 722.833 127.133 607.866 58.3665C545.133 19.6665 471.433 0.233206 397.866 0.533206ZM395.766 57.0665C560.6 56.8332 722.066 184.2 738.5 354.567C770 543.233 613.4 735 422.233 740.566C240.433 758.7 64.7329 604.567 59.5662 422C45.9996 274.2 143.433 127.5 282.833 78.6665C318.761 64.3541 357.092 57.0341 395.766 57.0999V57.0665ZM565.466 164.567C475.9 234.067 390.133 308.167 302.5 379.8C342.6 380.367 382.9 380.333 423.2 380.133C470.2 307.967 518.5 236.767 565.466 164.567ZM376.633 419.7C329.633 491.9 281.3 563.333 234.3 635.5C324.066 566.167 409.466 491.5 497.7 420.3C457.346 419.813 416.989 419.613 376.633 419.7Z" fill="white"/>
</g>
<defs>
<clipPath id="clip0_620_27861">
<rect width="800" height="800" fill="white"/>
</clipPath>
</defs>
</svg>
