<svg width="64" height="64" viewBox="0 0 64 64" fill="none" xmlns="http://www.w3.org/2000/svg">
<g clip-path="url(#clip0_620_27881)">
<path d="M13.3332 26.6666C19.2242 26.6666 23.9998 21.891 23.9998 15.9999C23.9998 10.1089 19.2242 5.33325 13.3332 5.33325C7.44213 5.33325 2.6665 10.1089 2.6665 15.9999C2.6665 21.891 7.44213 26.6666 13.3332 26.6666Z" fill="white"/>
<path d="M50.6667 26.6666C56.5577 26.6666 61.3333 21.891 61.3333 15.9999C61.3333 10.1089 56.5577 5.33325 50.6667 5.33325C44.7756 5.33325 40 10.1089 40 15.9999C40 21.891 44.7756 26.6666 50.6667 26.6666Z" fill="white"/>
<path d="M42.6663 38.6667C45.6119 38.6667 47.9997 36.2789 47.9997 33.3333C47.9997 30.3878 45.6119 28 42.6663 28C39.7208 28 37.333 30.3878 37.333 33.3333C37.333 36.2789 39.7208 38.6667 42.6663 38.6667Z" fill="white"/>
<path d="M21.3333 38.6667C24.2789 38.6667 26.6667 36.2789 26.6667 33.3333C26.6667 30.3878 24.2789 28 21.3333 28C18.3878 28 16 30.3878 16 33.3333C16 36.2789 18.3878 38.6667 21.3333 38.6667Z" fill="white"/>
<path d="M31.9998 21.3332C34.9454 21.3332 37.3332 18.9454 37.3332 15.9998C37.3332 13.0543 34.9454 10.6665 31.9998 10.6665C29.0543 10.6665 26.6665 13.0543 26.6665 15.9998C26.6665 18.9454 29.0543 21.3332 31.9998 21.3332Z" fill="white"/>
<path d="M31.9997 59.9998C37.8907 59.9998 42.6663 55.2242 42.6663 49.3332C42.6663 43.4421 37.8907 38.6665 31.9997 38.6665C26.1086 38.6665 21.333 43.4421 21.333 49.3332C21.333 55.2242 26.1086 59.9998 31.9997 59.9998Z" fill="white"/>
</g>
<defs>
<clipPath id="clip0_620_27881">
<rect width="64" height="64" fill="white"/>
</clipPath>
</defs>
</svg>
