<?xml version="1.0" encoding="iso-8859-1"?>
<!-- Uploaded to: SVG Repo, www.svgrepo.com, Generator: SVG Repo Mixer Tools -->
<svg version="1.1" id="Layer_1" xmlns="http://www.w3.org/2000/svg" xmlns:xlink="http://www.w3.org/1999/xlink" 
	 viewBox="0 0 512 512" xml:space="preserve">
<path style="fill:#EDF0F2;" d="M461.913,72.348H50.087C22.468,72.348,0,94.816,0,122.435v50.087h512v-50.087
	C512,94.816,489.532,72.348,461.913,72.348z"/>
<path style="fill:#DAE1E6;" d="M461.913,72.348H256v100.174h256v-50.087C512,94.816,489.532,72.348,461.913,72.348z"/>
<path style="fill:#3ABBE6;" d="M0,139.13v100.174h512V139.13H0z"/>
<rect x="256" y="139.13" style="fill:#33A6CC;" width="256" height="100.174"/>
<path style="fill:#EDF0F2;" d="M0,205.913v183.652c0,27.619,22.468,50.087,50.087,50.087h411.826
	c27.619,0,50.087-22.468,50.087-50.087V205.913H0z"/>
<path style="fill:#DAE1E6;" d="M256,439.652h205.913c27.619,0,50.087-22.468,50.087-50.087V205.913H256V439.652z"/>
<path style="fill:#C9D2D9;" d="M217.043,372.87H83.478c-9.217,0-16.696-7.473-16.696-16.696v-66.783
	c0-9.223,7.479-16.696,16.696-16.696h133.565c9.217,0,16.696,7.473,16.696,16.696v66.783
	C233.739,365.397,226.261,372.87,217.043,372.87z"/>
<path style="fill:#E6563A;" d="M345.141,372.832c-13.195,0-25.956-5.098-35.5-14.641c-13.402-13.402-18.044-33.136-12.12-51.511
	c4.804-14.875,16.543-26.614,31.423-31.413c18.315-5.908,38.098-1.293,51.5,12.109s18.044,33.136,12.12,51.511
	c-4.804,14.875-16.543,26.614-31.423,31.413C355.87,372,350.467,372.832,345.141,372.832z"/>
<path style="fill:#FFCC33;" d="M395.228,372.832c-13.195,0-25.956-5.098-35.501-14.641c-13.402-13.402-18.044-33.136-12.12-51.511
	c4.804-14.875,16.543-26.614,31.423-31.413c18.315-5.908,38.098-1.293,51.501,12.109c13.402,13.402,18.044,33.136,12.12,51.511
	c-4.804,14.875-16.543,26.614-31.423,31.413C405.957,372,400.554,372.832,395.228,372.832z"/>
</svg>